<?xml version="1.0" encoding="UTF-8"?>
<svg width="19px" height="17px" viewBox="0 0 19 17" version="1.1" xmlns="http://www.w3.org/2000/svg" xmlns:xlink="http://www.w3.org/1999/xlink">
    <!-- Generator: sketchtool 58 (101010) - https://sketch.com -->
    <title>DE49FAFB-0F2A-4288-A0B8-E2DC29A6EBF4</title>
    <desc>Created with sketchtool.</desc>
    <g id="Page-1" stroke="none" stroke-width="1" fill="none" fill-rule="evenodd">
        <g id="Front-end-test" transform="translate(-473.000000, -514.000000)" fill="#000000" fill-rule="nonzero">
            <g id="Form-part-1-" transform="translate(260.000000, 145.000000)">
                <g id="Upload-section" transform="translate(30.000000, 344.000000)">
                    <g id="cloud-upload" transform="translate(183.000000, 25.000000)">
                        <path d="M9.5,8.18880097 L9.5,16.46875 C9.5,16.7621513 9.26370587,17 8.97222222,17 C8.68073858,17 8.44444444,16.7621513 8.44444444,16.46875 L8.44444444,8.18880097 L6.1787508,10.4694005 C5.97264075,10.6768665 5.63847036,10.6768665 5.43236031,10.4694005 C5.22625026,10.2619344 5.22625026,9.9255656 5.43236031,9.71809951 L8.59902697,6.53059951 C8.80513707,6.32313349 9.13930738,6.32313349 9.34541748,6.53059951 L12.5120841,9.71809951 C12.7181941,9.9255656 12.7181941,10.2619344 12.5120841,10.4694005 C12.305974,10.6768665 11.9718037,10.6768665 11.7656936,10.4694005 L9.5,8.18880097 Z M13.4519381,3.1875 L14.25,3.1875 C16.8733526,3.1875 19,5.32813854 19,7.96875 C19,10.6093615 16.8733526,12.75 14.25,12.75 C13.9585164,12.75 13.7222222,12.5121513 13.7222222,12.21875 C13.7222222,11.9253487 13.9585164,11.6875 14.25,11.6875 C16.2903853,11.6875 17.9444444,10.0225589 17.9444444,7.96875 C17.9444444,5.91494109 16.2903853,4.25 14.25,4.25 L13.693232,4.25 C13.7123879,4.42442736 13.7222222,4.60168267 13.7222222,4.78125 C13.7222222,5.07465127 13.4859281,5.3125 13.1944444,5.3125 C12.9029608,5.3125 12.6666667,5.07465127 12.6666667,4.78125 C12.6666667,2.72744109 11.0126075,1.0625 8.97222222,1.0625 L8.44444444,1.0625 C6.1125755,1.0625 4.22222222,2.96528981 4.22222222,5.3125 L4.22222222,5.84375 C4.22222222,6.13715127 3.98592806,6.375 3.69444444,6.375 C2.23702636,6.375 1.05555556,7.56424361 1.05555556,9.03125 C1.05555556,10.4982564 2.23702636,11.6875 3.69444444,11.6875 C3.98592806,11.6875 4.22222222,11.9253487 4.22222222,12.21875 C4.22222222,12.5121513 3.98592806,12.75 3.69444444,12.75 C1.65405912,12.75 0,11.0850589 0,9.03125 C0,7.15781175 1.3762892,5.60793796 3.16666667,5.35015971 C3.16666667,2.37848727 5.52960826,0 8.44444444,0 L8.97222222,0 C11.040402,0 12.7998638,1.33047465 13.4519381,3.1875 Z" id="Shape"></path>
                    </g>
                </g>
            </g>
        </g>
    </g>
</svg>