<?xml version="1.0" encoding="UTF-8"?>
<svg width="28px" height="36px" viewBox="0 0 28 36" version="1.1" xmlns="http://www.w3.org/2000/svg" xmlns:xlink="http://www.w3.org/1999/xlink">
    <!-- Generator: sketchtool 58 (101010) - https://sketch.com -->
    <title>63F1735F-3521-4193-8807-AA49C955E231</title>
    <desc>Created with sketchtool.</desc>
    <g id="Page-1" stroke="none" stroke-width="1" fill="none" fill-rule="evenodd">
        <g id="Front-end-test" transform="translate(-290.000000, -347.000000)" fill-rule="nonzero">
            <g id="Form-part-1-" transform="translate(260.000000, 145.000000)">
                <g id="Loading-section---finished" transform="translate(30.000000, 202.000000)">
                    <g id="css-icon">
                        <path d="M19.7177273,0 L1.24918182,0 C0.735,0 0.318181818,0.421071429 0.318181818,1.23814286 L0.318181818,35.3571429 C0.318181818,35.5789286 0.735,36 1.24918182,36 L26.7508182,36 C27.265,36 27.6818182,35.5789286 27.6818182,35.3571429 L27.6818182,8.343 C27.6818182,7.89557143 27.6226364,7.75157143 27.5182727,7.6455 L20.1135455,0.165214286 C20.0085455,0.0597857143 19.866,0 19.7177273,0 Z" id="Path" fill="#F7F7F7"></path>
                        <polygon id="Path" fill="#E5E5E5" points="20.0454545 0.0970714286 20.0454545 7.71428571 27.5857273 7.71428571"></polygon>
                        <path d="M26.7508182,36 L1.24918182,36 C0.735,36 0.318181818,35.5789286 0.318181818,35.0595 L0.318181818,25.0714286 L27.6818182,25.0714286 L27.6818182,35.0595 C27.6818182,35.5789286 27.265,36 26.7508182,36 Z" id="Path" fill="#0096E6"></path>
                        <g id="Group" transform="translate(6.363636, 27.000000)" fill="#FFFFFF">
                            <path d="M4.82363636,6.4125 C4.58563636,6.6465 4.31581818,6.82264286 4.01481818,6.93964286 C3.71381818,7.05664286 3.38863636,7.11514286 3.04054545,7.11514286 C2.65745455,7.11514286 2.30554545,7.04507143 1.98354545,6.90428571 C1.66154545,6.7635 1.38027273,6.55585714 1.13972727,6.28007143 C0.899181818,6.00428571 0.710181818,5.65907143 0.574,5.24314286 C0.437818182,4.82721429 0.369727273,4.34635714 0.369727273,3.80185714 C0.369727273,3.25735714 0.437818182,2.77778571 0.574,2.36507143 C0.710181818,1.95171429 0.899181818,1.60778571 1.13972727,1.33264286 C1.38027273,1.0575 1.66281818,0.847928571 1.988,0.703928571 C2.31318182,0.559928571 2.66381818,0.488571429 3.04054545,0.488571429 C3.38863636,0.488571429 3.71381818,0.547071429 4.01481818,0.664071429 C4.31581818,0.781071429 4.58563636,0.957214286 4.82363636,1.19121429 L4.10136364,1.84178571 C3.95627273,1.67142857 3.79590909,1.54864286 3.61836364,1.47278571 C3.44081818,1.39692857 3.25754545,1.35835714 3.066,1.35835714 C2.85154545,1.35835714 2.64727273,1.39885714 2.45254545,1.48114286 C2.25781818,1.56342857 2.08409091,1.70228571 1.93072727,1.89835714 C1.77736364,2.09442857 1.65645455,2.34771429 1.56990909,2.65885714 C1.48336364,2.97 1.43627273,3.34992857 1.43054545,3.80121429 C1.43627273,4.24092857 1.48145455,4.61571429 1.56545455,4.92621429 C1.64945455,5.23671429 1.76527273,5.49 1.91354545,5.68671429 C2.06181818,5.88342857 2.22981818,6.02614286 2.41818182,6.11742857 C2.60654545,6.20871429 2.80509091,6.25371429 3.01445455,6.25371429 C3.22381818,6.25371429 3.41918182,6.21514286 3.60181818,6.13928571 C3.78445455,6.06342857 3.95118182,5.94 4.102,5.77028571 L4.82363636,6.4125 Z" id="Path"></path>
                            <path d="M9.94827273,5.29585714 C9.94827273,5.52985714 9.90054545,5.75742857 9.80445455,5.97728571 C9.70836364,6.19714286 9.57409091,6.39064286 9.39972727,6.55714286 C9.22536364,6.72364286 9.01154545,6.85735714 8.75572727,6.957 C8.49990909,7.05664286 8.211,7.10614286 7.88581818,7.10614286 C7.74645455,7.10614286 7.60327273,7.09842857 7.455,7.08428571 C7.30672727,7.07014286 7.15781818,7.04442857 7.007,7.00971429 C6.85618182,6.975 6.71236364,6.92614286 6.57618182,6.86442857 C6.44,6.80271429 6.32290909,6.72814286 6.22363636,6.64007143 L6.40627273,5.88407143 C6.48772727,5.931 6.59018182,5.97664286 6.71490909,6.02035714 C6.83963636,6.06407143 6.96818182,6.10521429 7.10181818,6.14314286 C7.23545455,6.18107143 7.36845455,6.21192857 7.50209091,6.23571429 C7.63572727,6.2595 7.75981818,6.27107143 7.87627273,6.27107143 C8.23009091,6.27107143 8.50118182,6.1875 8.68954545,6.02035714 C8.87790909,5.85321429 8.97209091,5.60571429 8.97209091,5.27785714 C8.97209091,5.07857143 8.90590909,4.90885714 8.77227273,4.76807143 C8.63863636,4.62728571 8.47190909,4.5 8.27209091,4.38557143 C8.07227273,4.27114286 7.85590909,4.15735714 7.62363636,4.04292857 C7.39136364,3.9285 7.17436364,3.7935 6.97136364,3.63857143 C6.76836364,3.48364286 6.60036364,3.30042857 6.46672727,3.08957143 C6.33309091,2.87871429 6.26690909,2.61514286 6.26690909,2.29885714 C6.26690909,2.01214286 6.31909091,1.75692857 6.42345455,1.5345 C6.52781818,1.31207143 6.66845455,1.12242857 6.84536364,0.9675 C7.02227273,0.812571429 7.22845455,0.693642857 7.46327273,0.611357143 C7.69809091,0.529071429 7.94627273,0.488571429 8.20718182,0.488571429 C8.47381818,0.488571429 8.74363636,0.513642857 9.016,0.563142857 C9.28836364,0.612642857 9.50854545,0.693642857 9.67718182,0.804857143 C9.64218182,0.880714286 9.60209091,0.964285714 9.55563636,1.05557143 C9.50918182,1.14685714 9.46527273,1.23107143 9.42518182,1.31014286 C9.38509091,1.38921429 9.35009091,1.45542857 9.32081818,1.50814286 C9.29154545,1.56085714 9.27436364,1.59042857 9.26863636,1.59621429 C9.23363636,1.57885714 9.19481818,1.55571429 9.15090909,1.52614286 C9.107,1.49657143 9.04527273,1.46764286 8.96381818,1.43807143 C8.88236364,1.4085 8.77545455,1.38857143 8.64181818,1.37635714 C8.50818182,1.36414286 8.337,1.36735714 8.12827273,1.38535714 C8.01181818,1.39757143 7.90236364,1.43035714 7.79736364,1.48628571 C7.69236364,1.54221429 7.60009091,1.61035714 7.51863636,1.69264286 C7.43718182,1.77492857 7.37354545,1.86685714 7.32709091,1.96971429 C7.28063636,2.07257143 7.25772727,2.17092857 7.25772727,2.26414286 C7.25772727,2.49814286 7.32390909,2.68714286 7.45754545,2.83114286 C7.59118182,2.97514286 7.75663636,3.1005 7.95327273,3.20914286 C8.14990909,3.31778571 8.365,3.42321429 8.59727273,3.52542857 C8.82954545,3.62764286 9.04527273,3.753 9.24572727,3.89892857 C9.44618182,4.04485714 9.61227273,4.22871429 9.74590909,4.44792857 C9.87954545,4.66714286 9.94827273,4.95 9.94827273,5.29585714 Z" id="Path"></path>
                            <path d="M14.6637273,5.29585714 C14.6637273,5.52985714 14.616,5.75742857 14.5199091,5.97728571 C14.4238182,6.19714286 14.2895455,6.39064286 14.1151818,6.55714286 C13.9408182,6.72364286 13.727,6.85735714 13.4711818,6.957 C13.2153636,7.05664286 12.9264545,7.10614286 12.6012727,7.10614286 C12.4619091,7.10614286 12.3187273,7.09842857 12.1704545,7.08428571 C12.0221818,7.07014286 11.8732727,7.04442857 11.7224545,7.00971429 C11.5716364,6.975 11.4278182,6.92614286 11.2916364,6.86442857 C11.1554545,6.80271429 11.0383636,6.72814286 10.9390909,6.64007143 L11.1217273,5.88407143 C11.2031818,5.931 11.3056364,5.97664286 11.4303636,6.02035714 C11.5550909,6.06407143 11.6836364,6.10521429 11.8172727,6.14314286 C11.9509091,6.18107143 12.0839091,6.21192857 12.2175455,6.23571429 C12.3511818,6.2595 12.4752727,6.27107143 12.5917273,6.27107143 C12.9455455,6.27107143 13.2166364,6.1875 13.405,6.02035714 C13.5933636,5.85321429 13.6875455,5.60571429 13.6875455,5.27785714 C13.6875455,5.07857143 13.6213636,4.90885714 13.4877273,4.76807143 C13.3540909,4.62728571 13.1873636,4.5 12.9875455,4.38557143 C12.7877273,4.27114286 12.5713636,4.15735714 12.3390909,4.04292857 C12.1068182,3.9285 11.8898182,3.7935 11.6868182,3.63857143 C11.4838182,3.48364286 11.3158182,3.30042857 11.1821818,3.08957143 C11.0485455,2.87871429 10.9823636,2.61514286 10.9823636,2.29885714 C10.9823636,2.01214286 11.0345455,1.75692857 11.1389091,1.5345 C11.2432727,1.31207143 11.3839091,1.12242857 11.5608182,0.9675 C11.7377273,0.812571429 11.9439091,0.693642857 12.1787273,0.611357143 C12.4135455,0.529071429 12.6617273,0.488571429 12.9226364,0.488571429 C13.1892727,0.488571429 13.4590909,0.513642857 13.7314545,0.563142857 C14.0038182,0.612642857 14.224,0.693642857 14.3926364,0.804857143 C14.3576364,0.880714286 14.3175455,0.964285714 14.2710909,1.05557143 C14.2246364,1.14685714 14.1807273,1.23107143 14.1406364,1.31014286 C14.1005455,1.38921429 14.0655455,1.45542857 14.0362727,1.50814286 C14.007,1.56085714 13.9898182,1.59042857 13.9840909,1.59621429 C13.9490909,1.57885714 13.9102727,1.55571429 13.8663636,1.52614286 C13.8224545,1.49657143 13.7607273,1.46764286 13.6792727,1.43807143 C13.5978182,1.4085 13.4909091,1.38857143 13.3572727,1.37635714 C13.2236364,1.36414286 13.0524545,1.36735714 12.8437273,1.38535714 C12.7272727,1.39757143 12.6178182,1.43035714 12.5128182,1.48628571 C12.4078182,1.54221429 12.3155455,1.61035714 12.2340909,1.69264286 C12.1526364,1.77492857 12.089,1.86685714 12.0425455,1.96971429 C11.9960909,2.07257143 11.9731818,2.17092857 11.9731818,2.26414286 C11.9731818,2.49814286 12.0393636,2.68714286 12.173,2.83114286 C12.3066364,2.97514286 12.4720909,3.1005 12.6687273,3.20914286 C12.8653636,3.31778571 13.0804545,3.42321429 13.3127273,3.52542857 C13.545,3.62764286 13.7607273,3.753 13.9611818,3.89892857 C14.1616364,4.04485714 14.3277273,4.22871429 14.4613636,4.44792857 C14.595,4.66714286 14.6637273,4.95 14.6637273,5.29585714 Z" id="Path"></path>
                        </g>
                        <g id="Group" transform="translate(5.090909, 7.714286)" fill="#0096E6">
                            <path d="M3.5,4.5 L3.5,1.92857143 C3.5,1.57435714 3.78509091,1.28571429 4.13636364,1.28571429 C4.48827273,1.28571429 4.77272727,0.997714286 4.77272727,0.642857143 C4.77272727,0.288 4.48827273,0 4.13636364,0 C3.08381818,0 2.22727273,0.865285714 2.22727273,1.92857143 L2.22727273,4.5 C2.22727273,5.20907143 1.65645455,5.78571429 0.954545455,5.78571429 C0.602636364,5.78571429 0.318181818,6.07371429 0.318181818,6.42857143 C0.318181818,6.78342857 0.602636364,7.07142857 0.954545455,7.07142857 C1.65645455,7.07142857 2.22727273,7.64807143 2.22727273,8.35714286 L2.22727273,10.9285714 C2.22727273,11.9918571 3.08381818,12.8571429 4.13636364,12.8571429 C4.48827273,12.8571429 4.77272727,12.5691429 4.77272727,12.2142857 C4.77272727,11.8594286 4.48827273,11.5714286 4.13636364,11.5714286 C3.78509091,11.5714286 3.5,11.2827857 3.5,10.9285714 L3.5,8.35714286 C3.5,7.58571429 3.15509091,6.90042857 2.62054545,6.42857143 C3.15509091,5.95671429 3.5,5.27142857 3.5,4.5 Z" id="Path"></path>
                            <path d="M16.2272727,5.78571429 C15.5253636,5.78571429 14.9545455,5.20907143 14.9545455,4.5 L14.9545455,1.92857143 C14.9545455,0.865285714 14.098,0 13.0454545,0 C12.6935455,0 12.4090909,0.288 12.4090909,0.642857143 C12.4090909,0.997714286 12.6935455,1.28571429 13.0454545,1.28571429 C13.3967273,1.28571429 13.6818182,1.57435714 13.6818182,1.92857143 L13.6818182,4.5 C13.6818182,5.27142857 14.0267273,5.95671429 14.5612727,6.42857143 C14.0267273,6.90042857 13.6818182,7.58571429 13.6818182,8.35714286 L13.6818182,10.9285714 C13.6818182,11.2827857 13.3967273,11.5714286 13.0454545,11.5714286 C12.6935455,11.5714286 12.4090909,11.8594286 12.4090909,12.2142857 C12.4090909,12.5691429 12.6935455,12.8571429 13.0454545,12.8571429 C14.098,12.8571429 14.9545455,11.9918571 14.9545455,10.9285714 L14.9545455,8.35714286 C14.9545455,7.64807143 15.5253636,7.07142857 16.2272727,7.07142857 C16.5791818,7.07142857 16.8636364,6.78342857 16.8636364,6.42857143 C16.8636364,6.07371429 16.5791818,5.78571429 16.2272727,5.78571429 Z" id="Path"></path>
                        </g>
                    </g>
                </g>
            </g>
        </g>
    </g>
</svg>