<?xml version="1.0" encoding="UTF-8"?>
<svg width="28px" height="36px" viewBox="0 0 28 36" version="1.1" xmlns="http://www.w3.org/2000/svg" xmlns:xlink="http://www.w3.org/1999/xlink">
    <!-- Generator: sketchtool 58 (101010) - https://sketch.com -->
    <title>8395F2F9-5C8C-4170-8391-F9BEA398F1C7</title>
    <desc>Created with sketchtool.</desc>
    <g id="Page-1" stroke="none" stroke-width="1" fill="none" fill-rule="evenodd">
        <g id="Front-end-test" transform="translate(-290.000000, -413.000000)" fill-rule="nonzero">
            <g id="Form-part-1-" transform="translate(260.000000, 145.000000)">
                <g id="Loading-section---in-progress" transform="translate(30.000000, 268.000000)">
                    <g id="html-icon">
                        <path d="M19.7177273,0 L1.24918182,0 C0.735,0 0.318181818,0.421071429 0.318181818,1.23814286 L0.318181818,35.3571429 C0.318181818,35.5789286 0.735,36 1.24918182,36 L26.7508182,36 C27.265,36 27.6818182,35.5789286 27.6818182,35.3571429 L27.6818182,8.343 C27.6818182,7.89557143 27.6226364,7.75157143 27.5182727,7.6455 L20.1135455,0.165214286 C20.0085455,0.0597857143 19.866,0 19.7177273,0 Z" id="Path" fill="#F7F7F7"></path>
                        <polygon id="Path" fill="#E5E5E5" points="20.0454545 0.0970714286 20.0454545 7.71428571 27.5857273 7.71428571"></polygon>
                        <path d="M26.7508182,36 L1.24918182,36 C0.735,36 0.318181818,35.5789286 0.318181818,35.0595 L0.318181818,25.0714286 L27.6818182,25.0714286 L27.6818182,35.0595 C27.6818182,35.5789286 27.265,36 26.7508182,36 Z" id="Path" fill="#EC6630"></path>
                        <g id="Group" transform="translate(1.909091, 27.000000)" fill="#FFFFFF">
                            <polygon id="Path" points="5.38045455 0.594 5.38045455 7.07142857 4.33618182 7.07142857 4.33618182 4.1535 1.561 4.1535 1.561 7.07142857 0.499545455 7.07142857 0.499545455 0.594 1.561 0.594 1.561 3.43285714 4.33618182 3.43285714 4.33618182 0.594 5.38045455 0.594"></polygon>
                            <polygon id="Path" points="11.5226364 0.594 11.5226364 1.31464286 9.60909091 1.31464286 9.60909091 7.07142857 8.55654545 7.07142857 8.55654545 1.31464286 6.64236364 1.31464286 6.64236364 0.594"></polygon>
                            <polygon id="Path" points="17.6304545 0.594 18.6919091 0.594 18.6919091 7.07142857 17.6304545 7.07142857 17.6304545 2.61514286 16.1948182 6.21835714 15.2727273 6.21835714 13.8281818 2.61514286 13.8281818 7.07142857 12.7667273 7.07142857 12.7667273 0.594 13.8281818 0.594 15.7334545 5.02392857"></polygon>
                            <polygon id="Path" points="21.3627273 0.594 21.3627273 6.27171429 24.3122727 6.27171429 24.3122727 7.07142857 20.3012727 7.07142857 20.3012727 0.594"></polygon>
                        </g>
                        <g id="Group" transform="translate(5.727273, 10.285714)" fill="#EC6630">
                            <path d="M5.22263636,0.188357143 C4.97381818,-0.063 4.57163636,-0.063 4.32281818,0.188357143 L0.504636364,4.0455 C0.255818182,4.29685714 0.255818182,4.70314286 0.504636364,4.9545 L4.32281818,8.81164286 C4.44690909,8.937 4.60981818,9 4.77272727,9 C4.93563636,9 5.09854545,8.937 5.22263636,8.81164286 C5.47145455,8.56028571 5.47145455,8.154 5.22263636,7.90264286 L1.85436364,4.5 L5.22263636,1.09735714 C5.47145455,0.846 5.47145455,0.439714286 5.22263636,0.188357143 Z" id="Path"></path>
                            <path d="M16.6771818,4.0455 L12.859,0.188357143 C12.6101818,-0.063 12.208,-0.063 11.9591818,0.188357143 C11.7103636,0.439714286 11.7103636,0.846 11.9591818,1.09735714 L15.3274545,4.5 L11.9591818,7.90264286 C11.7103636,8.154 11.7103636,8.56028571 11.9591818,8.81164286 C12.0832727,8.937 12.2461818,9 12.4090909,9 C12.572,9 12.7349091,8.937 12.859,8.81164286 L16.6771818,4.9545 C16.926,4.70314286 16.926,4.29685714 16.6771818,4.0455 Z" id="Path"></path>
                        </g>
                    </g>
                </g>
            </g>
        </g>
    </g>
</svg>